<svg xmlns="http://www.w3.org/2000/svg" viewBox="0 0 841.89 595.28"><defs><style>.cls-1{fill:#fff;}.cls-2{fill:#bba8ef;}.cls-3{fill:#9a81d2;}</style></defs><title>background</title><g id="Layer_2" data-name="Layer 2"><g id="BACKGROUND"><rect class="cls-1" width="841.89" height="595.28"/><path class="cls-2" d="M841.89,0H0V171.91c74.37,4.23,176,28.13,314.68,84q33.82,13.63,67.54,23.67,35.71,10.72,71.14,17.65C588.89,324.08,720.91,312.17,841.89,280Z"/><path class="cls-3" d="M197.92,73.67A12.07,12.07,0,1,0,210,85.74,12.06,12.06,0,0,0,197.92,73.67Zm0,18a6,6,0,1,1,6-6A6,6,0,0,1,197.92,91.7Z"/><path class="cls-3" d="M707.12,290a14.42,14.42,0,1,0,14.42,14.42A14.42,14.42,0,0,0,707.12,290Zm0,21.54a7.13,7.13,0,1,1,7.12-7.12A7.12,7.12,0,0,1,707.12,311.55Z"/><path class="cls-3" d="M203.74,448.56a7.54,7.54,0,1,0-7.54,7.54A7.55,7.55,0,0,0,203.74,448.56Zm-3.81,0a3.73,3.73,0,1,1-3.73-3.72A3.73,3.73,0,0,1,199.93,448.56Z"/><path class="cls-3" d="M568,66.46a7.29,7.29,0,1,0,7.29,7.29A7.29,7.29,0,0,0,568,66.46Zm0,10.89a3.6,3.6,0,1,1,3.6-3.6A3.6,3.6,0,0,1,568,77.35Z"/><path class="cls-3" d="M313.43,112.8a5.15,5.15,0,1,1-5.15-5.14A5.16,5.16,0,0,1,313.43,112.8Z"/><path class="cls-3" d="M633.87,200.71a7,7,0,1,0-7,7A7,7,0,0,0,633.87,200.71Z"/><path class="cls-3" d="M259.56,101.15a5.16,5.16,0,1,0-5.15,5.16A5.16,5.16,0,0,0,259.56,101.15Z"/><circle class="cls-3" cx="527.46" cy="482.58" r="2.54"/><path class="cls-3" d="M353,462a5.92,5.92,0,1,1-5.92-5.93A5.92,5.92,0,0,1,353,462Z"/><circle class="cls-3" cx="132.14" cy="212.45" r="6.37"/><path class="cls-3" d="M473.78,79.16l-2-2,2-2a2.41,2.41,0,1,0-3.41-3.41l-2,2-2-2a2.41,2.41,0,0,0-3.41,3.41l2,2-2,2a2.41,2.41,0,0,0,3.41,3.41l2-2,2,2a2.41,2.41,0,0,0,3.41-3.41Z"/><path class="cls-3" d="M630.63,130.77l-2.39-2.38,2.39-2.39a2.85,2.85,0,0,0-4-4l-2.38,2.38L621.82,122a2.85,2.85,0,1,0-4,4l2.39,2.39-2.39,2.38a2.86,2.86,0,1,0,4,4l2.39-2.39,2.38,2.39a2.86,2.86,0,1,0,4-4Z"/><path class="cls-3" d="M605.66,462.88l-2.52,2.52,2.52,2.53a3,3,0,0,1-4.27,4.27l-2.53-2.52-2.52,2.52a3,3,0,0,1-4.27-4.27l2.52-2.53-2.52-2.52a3,3,0,0,1,4.27-4.27l2.52,2.52,2.53-2.52a3,3,0,0,1,4.27,4.27Z"/><path class="cls-3" d="M225.35,491.19l-2.12,2.12,2.12,2.12a2.54,2.54,0,1,1-3.59,3.59l-2.12-2.12L217.52,499a2.54,2.54,0,1,1-3.59-3.59l2.12-2.12-2.12-2.12a2.54,2.54,0,1,1,3.59-3.59l2.12,2.12,2.12-2.12a2.54,2.54,0,1,1,3.59,3.59Z"/></g></g></svg>