<svg xmlns="http://www.w3.org/2000/svg" viewBox="0 0 101.74 98.49"><defs><style>.cls-1{fill:#aaa;}.cls-2{fill:#d8d7db;}.cls-3{fill:#e0e6fa;}.cls-4{fill:#00506a;}.cls-5{fill:#feffff;}.cls-6{fill:#f2f0f7;}</style></defs><title>mail</title><g id="Layer_2" data-name="Layer 2"><g id="OBJECT"><path class="cls-1" d="M0,38.72V92.14a6.34,6.34,0,0,0,6.34,6.35H95.39a6.35,6.35,0,0,0,6.35-6.35V38.72Z"/><path class="cls-2" d="M99.46,34.2,54.15,1.07a5.55,5.55,0,0,0-6.56,0L2.28,34.2A5.57,5.57,0,0,0,0,38.69v0H101.74v0A5.57,5.57,0,0,0,99.46,34.2Z"/><rect class="cls-3" x="13.17" y="29.81" width="75.61" height="60.58" rx="1.99"/><path class="cls-4" d="M24.83,47.38H77.35a1,1,0,1,0,0-2H24.83a1,1,0,0,0,0,2Z"/><path class="cls-4" d="M77.35,54H24.83a1,1,0,0,0,0,2H77.35a1,1,0,1,0,0-2Z"/><path class="cls-4" d="M77.35,62.67H24.83a1,1,0,0,0,0,2H77.35a1,1,0,1,0,0-2Z"/><path class="cls-5" d="M6.34,98.49H95.5a6.24,6.24,0,0,0,6.24-6.24V38.72Z"/><path class="cls-6" d="M0,38.72V92.25a6.24,6.24,0,0,0,6.24,6.24H95.39Z"/></g></g></svg>