<svg xmlns="http://www.w3.org/2000/svg" viewBox="0 0 76.37 66.22"><defs><style>.cls-1{fill:#fff;}</style></defs><title>star</title><g id="Layer_2" data-name="Layer 2"><g id="OBJECT"><path class="cls-1" d="M29.64,25.54c0,.64-.22,15.61-18.69,15.61A.92.92,0,0,0,11,43C29.37,43,29.63,58,29.64,58.6a.89.89,0,0,0,1.77.09C32.66,45.79,42.09,43.36,47,43h.19a18.11,18.11,0,0,0,3,0,.28.28,0,0,0,.12,0l.16,0,.14-.1.12-.09a1.3,1.3,0,0,0,.1-.15.57.57,0,0,0,.08-.13,1.06,1.06,0,0,0,0-.19s0-.08,0-.12v0h0v0s0-.08,0-.12a1.06,1.06,0,0,0,0-.19.57.57,0,0,0-.08-.13,1.3,1.3,0,0,0-.1-.15l-.12-.09-.14-.1-.16-.05-.12,0a18.55,18.55,0,0,0-2.89,0,20.65,20.65,0,0,1-6-1.32c-5.86-2.3-9.19-7.14-9.89-14.38a.89.89,0,0,0-1.77.09Z"/><path class="cls-1" d="M65.31,49.32a2.12,2.12,0,1,1-2.05,2.12A2.08,2.08,0,0,1,65.31,49.32Z"/><path class="cls-1" d="M44.85,24a2.11,2.11,0,1,1-2.05,2.11A2.07,2.07,0,0,1,44.85,24Z"/><path class="cls-1" d="M74.32,15.76a2.11,2.11,0,1,1-2,2.11A2.08,2.08,0,0,1,74.32,15.76Z"/><path class="cls-1" d="M43.82,59.89a3.17,3.17,0,1,1-3.06,3.16A3.11,3.11,0,0,1,43.82,59.89Z"/><path class="cls-1" d="M3.07,16a3.17,3.17,0,0,1,0,6.34,3.17,3.17,0,0,1,0-6.34Z"/><path class="cls-1" d="M22.45,0a3.12,3.12,0,0,1,3.07,3.17,3.07,3.07,0,1,1-6.14,0A3.13,3.13,0,0,1,22.45,0Z"/></g></g></svg>